<svg xmlns="http://www.w3.org/2000/svg" xmlns:xlink="http://www.w3.org/1999/xlink" width="500" zoomAndPan="magnify" viewBox="0 0 375 374.999991" height="500" preserveAspectRatio="xMidYMid meet" version="1.0"><defs><g/><clipPath id="9e29711c1f"><path d="M 197 90.636719 L 206 90.636719 L 206 104 L 197 104 Z M 197 90.636719 " clip-rule="nonzero"/></clipPath><clipPath id="f228470e1d"><path d="M 181 90.636719 L 194 90.636719 L 194 101 L 181 101 Z M 181 90.636719 " clip-rule="nonzero"/></clipPath><clipPath id="c79b6ee82e"><path d="M 159 90.636719 L 169 90.636719 L 169 104 L 159 104 Z M 159 90.636719 " clip-rule="nonzero"/></clipPath><clipPath id="0c1b11f4f4"><path d="M 63.476562 101 L 311.726562 101 L 311.726562 220.386719 L 63.476562 220.386719 Z M 63.476562 101 " clip-rule="nonzero"/></clipPath></defs><path fill="#40b93c" d="M 264.4375 202.789062 C 261.667969 195.464844 256.082031 191.011719 251.476562 194.84375 C 253.433594 195.410156 256.148438 196.941406 257.273438 198.863281 C 255.128906 197.019531 253.160156 196.832031 251.425781 196.015625 C 252.644531 203.199219 260.542969 202.496094 264.4375 202.789062 Z M 264.4375 202.789062 " fill-opacity="1" fill-rule="nonzero"/><path fill="#40b93c" d="M 270.195312 178.109375 C 266.410156 178.84375 258.457031 179.035156 258.757812 186.269531 C 260.304688 185.265625 262.210938 184.859375 263.953125 182.796875 C 263.21875 184.828125 260.871094 186.664062 259.050781 187.425781 C 264.390625 190.691406 268.996094 185.648438 270.195312 178.109375 Z M 270.195312 178.109375 " fill-opacity="1" fill-rule="nonzero"/><path fill="#40b93c" d="M 239.40625 186.90625 C 244.21875 190.933594 249.550781 186.695312 251.9375 179.492188 C 248.0625 179.621094 240.105469 178.589844 239.292969 185.726562 C 240.984375 184.984375 242.953125 184.882812 245.003906 183.125 C 243.960938 185 241.339844 186.449219 239.40625 186.90625 Z M 239.40625 186.90625 " fill-opacity="1" fill-rule="nonzero"/><path fill="#40b93c" d="M 217.675781 193.679688 C 216.238281 200.671875 223.949219 202.847656 227.550781 204.535156 C 227.550781 196.855469 223.867188 190.761719 218.113281 192.621094 C 219.804688 193.820312 221.789062 196.214844 222.183594 198.390625 C 220.828125 195.933594 219.027344 195.046875 217.675781 193.679688 Z M 217.675781 193.679688 " fill-opacity="1" fill-rule="nonzero"/><path fill="#40b93c" d="M 244.5 168.464844 C 249.058594 172.769531 254.6875 168.902344 257.503906 161.898438 C 253.613281 161.78125 245.742188 160.257812 244.460938 167.300781 C 246.207031 166.671875 248.175781 166.695312 250.34375 165.046875 C 249.183594 166.851562 246.46875 168.121094 244.5 168.464844 Z M 244.5 168.464844 " fill-opacity="1" fill-rule="nonzero"/><path fill="#40b93c" d="M 233.867188 152.472656 C 232.3125 155.960938 227.980469 162.433594 233.9375 166.828125 C 234.007812 164.953125 234.757812 163.171875 234.09375 160.457031 C 235.300781 162.339844 235.445312 165.390625 235.027344 167.335938 C 240.664062 165.160156 239.222656 158.277344 233.867188 152.472656 Z M 233.867188 152.472656 " fill-opacity="1" fill-rule="nonzero"/><path fill="#40b93c" d="M 243.722656 142.074219 C 249.761719 143.441406 252.359375 137.078125 250.980469 129.449219 C 247.707031 131.402344 240.394531 134.222656 243.09375 141.0625 C 244.21875 139.589844 245.832031 138.570312 246.761719 135.992188 C 246.738281 138.199219 245.164062 140.742188 243.722656 142.074219 Z M 243.722656 142.074219 " fill-opacity="1" fill-rule="nonzero"/><path fill="#40b93c" d="M 221.546875 136.351562 C 225.355469 131.730469 220.851562 126.167969 213.515625 123.464844 C 213.832031 127.359375 213.1875 135.230469 220.375 136.425781 C 219.542969 134.695312 219.347656 132.726562 217.488281 130.59375 C 219.421875 131.703125 220.992188 134.394531 221.546875 136.351562 Z M 221.546875 136.351562 " fill-opacity="1" fill-rule="nonzero"/><path fill="#40b93c" d="M 223.5 151.695312 C 229.136719 154.445312 233.179688 148.949219 233.644531 141.296875 C 229.964844 142.398438 222.109375 143.359375 223.105469 150.566406 C 224.539062 149.441406 226.390625 148.828125 227.914062 146.589844 C 227.386719 148.695312 225.242188 150.757812 223.5 151.695312 Z M 223.5 151.695312 " fill-opacity="1" fill-rule="nonzero"/><path fill="#40b93c" d="M 224.78125 119.253906 C 226.742188 113.546875 220.707031 109.746094 213.007812 109.632812 C 214.613281 113.242188 216.675781 121.023438 223.714844 119.707031 C 222.363281 118.332031 221.515625 116.511719 219.070312 115.097656 C 221.246094 115.523438 223.605469 117.570312 224.78125 119.253906 Z M 224.78125 119.253906 " fill-opacity="1" fill-rule="nonzero"/><path fill="#40b93c" d="M 250.226562 121.246094 C 247.78125 122.429688 246.933594 124.164062 245.582031 125.414062 C 252.613281 127.402344 254.683594 119.820312 256.289062 116.355469 C 248.585938 115.734375 242.539062 118.960938 244.496094 124.855469 C 245.71875 123.289062 248.054688 121.46875 250.226562 121.246094 Z M 250.226562 121.246094 " fill-opacity="1" fill-rule="nonzero"/><path fill="#40b93c" d="M 267.1875 145.050781 C 265.179688 143.050781 263.242188 142.710938 261.550781 141.765625 C 262.1875 148.996094 270.148438 148.917969 274.019531 149.515625 C 271.835938 142.035156 266.605469 137.15625 261.691406 140.601562 C 263.621094 141.296875 266.199219 143.0625 267.1875 145.050781 Z M 267.1875 145.050781 " fill-opacity="1" fill-rule="nonzero"/><path fill="#40b93c" d="M 266.378906 167.640625 C 267.816406 166.515625 269.664062 165.898438 271.191406 163.664062 C 270.664062 165.765625 268.515625 167.832031 266.785156 168.765625 C 272.390625 171.515625 276.464844 166.027344 276.929688 158.378906 C 273.242188 159.46875 265.382812 160.433594 266.378906 167.640625 Z M 266.378906 167.640625 " fill-opacity="1" fill-rule="nonzero"/><path fill="#40b93c" d="M 256.660156 138.15625 C 257.140625 136.355469 258.277344 134.773438 258.210938 132.035156 C 258.988281 134.121094 258.464844 137.105469 257.648438 138.882812 C 263.671875 138.019531 263.777344 131.039062 259.769531 124.28125 C 257.449219 127.285156 251.753906 132.597656 256.660156 138.15625 Z M 256.660156 138.15625 " fill-opacity="1" fill-rule="nonzero"/><path fill="#40b93c" d="M 228.238281 121.480469 C 229.296875 119.824219 231.511719 117.835938 233.648438 117.445312 C 231.308594 118.804688 230.59375 120.609375 229.34375 121.953125 C 236.488281 123.429688 237.992188 115.695312 239.339844 112.109375 C 231.621094 112.070312 225.859375 115.726562 228.238281 121.480469 Z M 228.238281 121.480469 " fill-opacity="1" fill-rule="nonzero"/><path fill="#40b93c" d="M 230.183594 135.777344 C 231.074219 134.046875 233.078125 131.792969 235.160156 131.230469 C 232.972656 132.816406 232.449219 134.683594 231.320312 136.152344 C 238.550781 136.941406 239.292969 129.058594 240.28125 125.351562 C 232.652344 126.015625 227.277344 130.242188 230.183594 135.777344 Z M 230.183594 135.777344 " fill-opacity="1" fill-rule="nonzero"/><path fill="#40b93c" d="M 261.589844 148.460938 C 257.703125 148.460938 249.757812 147.226562 248.753906 154.335938 C 250.472656 153.636719 252.441406 153.585938 254.542969 151.890625 C 253.449219 153.734375 250.785156 155.101562 248.832031 155.515625 C 253.539062 159.667969 259.027344 155.589844 261.589844 148.460938 Z M 261.589844 148.460938 " fill-opacity="1" fill-rule="nonzero"/><g clip-path="url(#9e29711c1f)"><path fill="#40b93c" d="M 202.386719 97.984375 C 200.796875 100.171875 200.847656 102.136719 200.234375 103.890625 C 207.273438 102.492188 205.636719 94.648438 205.46875 90.761719 C 198.492188 93.667969 194.679688 99.347656 199.058594 103.855469 C 199.367188 101.929688 200.601562 99.15625 202.386719 97.984375 Z M 202.386719 97.984375 " fill-opacity="1" fill-rule="nonzero"/></g><g clip-path="url(#f228470e1d)"><path fill="#40b93c" d="M 191.75 100.800781 C 190.398438 99.425781 189.550781 97.613281 187.105469 96.191406 C 189.273438 96.625 191.640625 98.667969 192.820312 100.351562 C 194.796875 94.632812 188.746094 90.824219 181.042969 90.714844 C 182.65625 94.328125 184.714844 102.109375 191.75 100.800781 Z M 191.75 100.800781 " fill-opacity="1" fill-rule="nonzero"/></g><path fill="#40b93c" d="M 202.765625 113.761719 C 203.734375 112.070312 205.847656 109.945312 207.953125 109.457031 C 205.699219 110.9375 205.070312 112.769531 203.886719 114.183594 C 211.105469 115.28125 212.195312 107.460938 213.359375 103.804688 C 205.683594 104.125 200.109375 108.128906 202.765625 113.761719 Z M 202.765625 113.761719 " fill-opacity="1" fill-rule="nonzero"/><path fill="#40b93c" d="M 194.246094 115.453125 C 197.0625 110.148438 191.640625 105.488281 183.996094 104.183594 C 185.039062 107.976562 185.894531 115.925781 193.113281 115.710938 C 191.984375 114.15625 191.421875 112.246094 189.207031 110.480469 C 191.296875 111.238281 193.335938 113.605469 194.246094 115.453125 Z M 194.246094 115.453125 " fill-opacity="1" fill-rule="nonzero"/><path fill="#40b93c" d="M 169.558594 114.460938 C 169.875 112.523438 171.109375 109.765625 172.894531 108.578125 C 171.300781 110.765625 171.351562 112.734375 170.738281 114.484375 C 177.78125 113.121094 176.167969 105.253906 175.972656 101.367188 C 168.996094 104.277344 165.179688 109.953125 169.558594 114.460938 Z M 169.558594 114.460938 " fill-opacity="1" fill-rule="nonzero"/><path fill="#40b93c" d="M 149.574219 124.832031 C 148.445312 123.25 147.957031 121.328125 145.78125 119.515625 C 147.855469 120.316406 149.84375 122.730469 150.710938 124.585938 C 153.667969 119.363281 148.339844 114.578125 140.714844 113.109375 C 141.667969 116.921875 142.359375 124.875 149.574219 124.832031 Z M 149.574219 124.832031 " fill-opacity="1" fill-rule="nonzero"/><g clip-path="url(#c79b6ee82e)"><path fill="#40b93c" d="M 164.757812 97.898438 C 163.179688 100.097656 163.25 102.0625 162.644531 103.820312 C 169.671875 102.402344 167.980469 94.546875 167.785156 90.660156 C 160.824219 93.625 157.078125 99.335938 161.46875 103.804688 C 161.765625 101.84375 162.984375 99.113281 164.757812 97.898438 Z M 164.757812 97.898438 " fill-opacity="1" fill-rule="nonzero"/></g><path fill="#40b93c" d="M 157.480469 111.574219 C 155.742188 110.765625 154.300781 109.351562 151.550781 108.898438 C 153.691406 108.515625 156.621094 109.585938 158.3125 110.753906 C 158.007812 104.621094 151.09375 103.230469 144.015625 105.941406 C 146.8125 108.757812 151.523438 115.402344 157.480469 111.574219 Z M 157.480469 111.574219 " fill-opacity="1" fill-rule="nonzero"/><path fill="#40b93c" d="M 115.140625 135.207031 C 113.589844 134.082031 112.464844 132.390625 109.835938 131.382812 C 112.027344 131.453125 114.683594 133.070312 116.109375 134.582031 C 117.089844 128.582031 110.546875 125.792969 102.992188 126.945312 C 105.171875 130.277344 108.457031 137.652344 115.140625 135.207031 Z M 115.140625 135.207031 " fill-opacity="1" fill-rule="nonzero"/><path fill="#40b93c" d="M 134.003906 142.03125 C 127.148438 145.316406 123.636719 151.121094 128.195312 155.457031 C 128.4375 153.476562 129.53125 150.6875 131.253906 149.421875 C 129.765625 151.675781 129.9375 153.648438 129.371094 155.429688 C 136.332031 153.71875 134.347656 145.917969 134.003906 142.03125 Z M 134.003906 142.03125 " fill-opacity="1" fill-rule="nonzero"/><path fill="#40b93c" d="M 141.351562 152.257812 C 135.527344 157.007812 133.464844 163.589844 138.863281 166.777344 C 138.621094 164.777344 139.042969 161.773438 140.410156 160.128906 C 139.503906 162.699219 140.089844 164.605469 139.988281 166.480469 C 146.304688 163.21875 142.582031 156.023438 141.351562 152.257812 Z M 141.351562 152.257812 " fill-opacity="1" fill-rule="nonzero"/><path fill="#40b93c" d="M 123.832031 130.992188 C 122.347656 133.246094 122.515625 135.21875 121.953125 137 C 128.910156 135.308594 126.921875 127.515625 126.582031 123.632812 C 119.75 126.855469 116.210938 132.722656 120.773438 137.027344 C 121.015625 135.050781 122.109375 132.261719 123.832031 130.992188 Z M 123.832031 130.992188 " fill-opacity="1" fill-rule="nonzero"/><path fill="#40b93c" d="M 103.53125 140.628906 C 105.894531 143.828125 109.628906 151.03125 116.132812 148.148438 C 114.519531 147.097656 113.3125 145.496094 110.621094 144.652344 C 112.808594 144.589844 115.546875 146.070312 117.054688 147.46875 C 117.664062 141.398438 110.980469 139.015625 103.53125 140.628906 Z M 103.53125 140.628906 " fill-opacity="1" fill-rule="nonzero"/><path fill="#40b93c" d="M 106.738281 153.769531 C 105.210938 154.800781 103.3125 155.234375 101.605469 157.328125 C 102.304688 155.289062 104.621094 153.386719 106.429688 152.617188 C 101.035156 149.433594 96.515625 154.558594 95.441406 162.113281 C 99.210938 161.324219 107.148438 160.984375 106.738281 153.769531 Z M 106.738281 153.769531 " fill-opacity="1" fill-rule="nonzero"/><path fill="#40b93c" d="M 141.234375 138.515625 C 140.449219 136.628906 140.027344 133.585938 140.878906 131.613281 C 140.722656 134.363281 141.796875 136.058594 142.21875 137.910156 C 147.292969 133.003906 141.804688 126.992188 139.609375 123.671875 C 135.402344 129.898438 135.261719 136.863281 141.234375 138.515625 Z M 141.234375 138.515625 " fill-opacity="1" fill-rule="nonzero"/><path fill="#40b93c" d="M 128.03125 120.578125 C 128.082031 118.578125 128.933594 115.6875 130.535156 114.269531 C 129.261719 116.679688 129.570312 118.636719 129.199219 120.46875 C 135.925781 118.164062 133.265625 110.539062 132.578125 106.683594 C 126.109375 110.5 123.125 116.675781 128.03125 120.578125 Z M 128.03125 120.578125 " fill-opacity="1" fill-rule="nonzero"/><path fill="#40b93c" d="M 161.976562 128.855469 L 162.019531 128.816406 C 154.75 130.9375 150.300781 136.144531 154.1875 141.078125 C 154.691406 139.167969 156.222656 136.570312 158.132812 135.617188 C 156.285156 137.636719 156.121094 139.5625 155.316406 141.253906 C 162.5 140.691406 161.714844 132.722656 161.976562 128.855469 Z M 161.976562 128.855469 " fill-opacity="1" fill-rule="nonzero"/><path fill="#40b93c" d="M 166.847656 151.019531 C 159.550781 153.132812 155.132812 158.34375 159.015625 163.273438 C 159.519531 161.363281 161.050781 158.800781 162.960938 157.820312 C 161.136719 159.808594 160.972656 161.761719 160.171875 163.453125 C 167.375 162.851562 166.589844 154.894531 166.847656 151.019531 Z M 166.847656 151.019531 " fill-opacity="1" fill-rule="nonzero"/><path fill="#40b93c" d="M 198.996094 168.0625 C 191.992188 170.929688 188.152344 176.609375 192.503906 181.117188 C 192.84375 179.15625 194.09375 176.429688 195.882812 175.257812 C 194.257812 177.433594 194.316406 179.398438 193.691406 181.148438 C 200.734375 179.824219 199.140625 171.949219 198.996094 168.0625 Z M 198.996094 168.0625 " fill-opacity="1" fill-rule="nonzero"/><path fill="#40b93c" d="M 207.890625 168.71875 C 211.835938 164.210938 207.519531 158.53125 200.261719 155.597656 C 200.453125 159.488281 199.546875 167.347656 206.714844 168.734375 C 205.9375 166.980469 205.808594 165.015625 204.011719 162.824219 C 205.910156 164.011719 207.390625 166.765625 207.890625 168.71875 Z M 207.890625 168.71875 " fill-opacity="1" fill-rule="nonzero"/><path fill="#40b93c" d="M 199.546875 138.042969 C 192.4375 140.65625 188.390625 146.171875 192.589844 150.839844 C 192.984375 148.886719 194.328125 146.234375 196.167969 145.109375 C 194.476562 147.21875 194.476562 149.1875 193.773438 150.910156 C 200.871094 149.824219 199.546875 141.933594 199.546875 138.042969 Z M 199.546875 138.042969 " fill-opacity="1" fill-rule="nonzero"/><path fill="#40b93c" d="M 131.980469 208.746094 C 135.152344 206.644531 142.316406 203.496094 139.339844 196.761719 C 138.308594 198.289062 136.71875 199.378906 135.910156 201.984375 C 135.820312 199.796875 137.265625 197.175781 138.640625 195.785156 C 132.554688 194.691406 130.257812 201.179688 131.980469 208.746094 Z M 131.980469 208.746094 " fill-opacity="1" fill-rule="nonzero"/><path fill="#40b93c" d="M 124.855469 198.699219 C 123.328125 199.730469 121.429688 200.167969 119.726562 202.269531 C 120.417969 200.230469 122.730469 198.328125 124.539062 197.550781 C 119.140625 194.378906 114.632812 199.511719 113.574219 207.078125 C 117.355469 206.277344 125.292969 205.949219 124.855469 198.699219 Z M 124.855469 198.699219 " fill-opacity="1" fill-rule="nonzero"/><path fill="#40b93c" d="M 102.472656 187.429688 C 106.765625 194.035156 113.179688 197.15625 116.734375 192.34375 C 114.746094 192.246094 111.777344 191.324219 110.238281 189.6875 C 112.726562 191.019531 114.667969 190.757812 116.519531 191.175781 C 113.742188 184.371094 106.296875 186.839844 102.472656 187.429688 Z M 102.472656 187.429688 " fill-opacity="1" fill-rule="nonzero"/><path fill="#40b93c" d="M 122.808594 182.707031 L 122.808594 182.753906 C 126.753906 189.515625 132.992188 192.984375 136.828125 188.386719 C 134.820312 188.210938 131.914062 187.085938 130.464844 185.394531 C 132.871094 186.855469 134.820312 186.695312 136.664062 187.214844 C 134.257812 180.25 126.664062 182.332031 122.808594 182.707031 Z M 122.808594 182.707031 " fill-opacity="1" fill-rule="nonzero"/><path fill="#40b93c" d="M 155.320312 190.285156 C 149.292969 188.859375 146.625 195.195312 147.933594 202.828125 C 151.230469 200.914062 158.570312 198.167969 155.964844 191.300781 C 154.835938 192.765625 153.203125 193.769531 152.242188 196.316406 C 152.253906 194.128906 153.851562 191.605469 155.320312 190.285156 Z M 155.320312 190.285156 " fill-opacity="1" fill-rule="nonzero"/><path fill="#40b93c" d="M 171.660156 194.335938 C 166.027344 191.617188 161.996094 197.128906 161.574219 204.777344 C 165.25 203.652344 173.105469 202.664062 172.074219 195.464844 C 170.640625 196.625 168.792969 197.222656 167.28125 199.460938 C 167.789062 197.339844 169.925781 195.261719 171.660156 194.335938 Z M 171.660156 194.335938 " fill-opacity="1" fill-rule="nonzero"/><path fill="#40b93c" d="M 106.25 177.636719 C 104.34375 176.886719 101.808594 175.066406 100.867188 173.050781 C 102.820312 175.101562 104.773438 175.488281 106.421875 176.476562 C 105.976562 169.242188 98.003906 169.109375 94.144531 168.417969 C 96.105469 175.945312 101.226562 180.945312 106.25 177.636719 Z M 106.25 177.636719 " fill-opacity="1" fill-rule="nonzero"/><path fill="#40b93c" d="M 120.222656 172.210938 C 122.390625 165.414062 114.863281 162.445312 111.441406 160.421875 C 110.625 168.03125 113.695312 174.449219 119.640625 173.207031 C 118.101562 171.84375 116.34375 169.261719 116.175781 167.078125 C 117.296875 169.65625 119.011719 170.710938 120.222656 172.210938 Z M 120.222656 172.210938 " fill-opacity="1" fill-rule="nonzero"/><path fill="#40b93c" d="M 185.183594 116.457031 C 179.183594 120.960938 176.902344 127.476562 182.1875 130.855469 C 182.011719 128.851562 182.535156 125.875 183.96875 124.28125 C 182.964844 126.8125 183.488281 128.734375 183.320312 130.597656 C 189.742188 127.5625 186.3125 120.234375 185.183594 116.457031 Z M 185.183594 116.457031 " fill-opacity="1" fill-rule="nonzero"/><path fill="#40b93c" d="M 178.265625 143.136719 C 179.574219 137.214844 173.195312 134.082031 165.546875 134.820312 L 165.519531 134.820312 C 167.507812 138.25 170.410156 145.800781 177.234375 143.703125 C 175.746094 142.476562 174.710938 140.757812 172.164062 139.609375 C 174.355469 139.800781 176.917969 141.582031 178.265625 143.136719 Z M 178.265625 143.136719 " fill-opacity="1" fill-rule="nonzero"/><path fill="#40b93c" d="M 176.894531 179.867188 C 179.617188 174.507812 174.078125 169.957031 166.425781 168.816406 C 167.554688 172.59375 168.5625 180.53125 175.773438 180.171875 C 174.609375 178.632812 174.003906 176.734375 171.757812 175.015625 C 173.863281 175.742188 175.949219 178.058594 176.894531 179.867188 Z M 176.894531 179.867188 " fill-opacity="1" fill-rule="nonzero"/><path fill="#40b93c" d="M 210.125 143.5625 C 213.003906 138.289062 207.605469 133.585938 199.980469 132.226562 C 200.996094 136.03125 201.777344 143.980469 208.996094 143.835938 C 207.871094 142.261719 207.304688 140.351562 205.132812 138.566406 C 207.210938 139.335938 209.226562 141.726562 210.125 143.5625 Z M 210.125 143.5625 " fill-opacity="1" fill-rule="nonzero"/><path fill="#40b93c" d="M 224.6875 110.476562 C 224.636719 108.589844 225.253906 106.757812 224.441406 104.085938 C 225.761719 105.894531 226.105469 108.945312 225.804688 110.910156 C 231.269531 108.386719 229.40625 101.5625 223.714844 96.109375 C 222.375 99.675781 218.484375 106.4375 224.6875 110.476562 Z M 224.6875 110.476562 " fill-opacity="1" fill-rule="nonzero"/><path fill="#40b93c" d="M 241.46875 154.015625 C 242.164062 163.773438 237.664062 168.378906 230.945312 174.78125 C 231.136719 171.90625 231.097656 167.332031 228.519531 164.902344 C 231.101562 176.785156 222.632812 179.164062 213.515625 181.027344 C 221.757812 168.835938 214.113281 162.6875 231.699219 152.890625 C 225.945312 153.9375 221.261719 156.105469 217.816406 160.46875 C 217.5 155.730469 217.296875 153.09375 218.648438 149.714844 C 220.210938 145.828125 233.863281 134.992188 225.273438 121.347656 C 230.121094 135.230469 218.515625 141.367188 217.324219 145.109375 C 216.652344 140.902344 212.40625 138.75 211.691406 126.59375 C 208.175781 137.117188 215.363281 141.804688 213.945312 154.425781 C 211.199219 150.222656 209.691406 148.492188 205.222656 147.824219 C 215.671875 154.757812 213.414062 164.511719 209.851562 172.304688 C 207.9375 176.515625 205.707031 181.886719 202.984375 184.285156 C 199.238281 187.582031 195.621094 192.460938 194.117188 196.253906 C 193.394531 198.875 192.171875 200.613281 191.042969 204.140625 C 190.164062 206.898438 189.292969 208.789062 189.917969 211.820312 C 190.398438 209.78125 191.089844 207.816406 191.992188 205.921875 C 193.355469 203.027344 195.011719 201.453125 198.238281 199.03125 C 199.53125 198.0625 200.742188 193.507812 204.933594 191.707031 C 208.179688 189.746094 210.449219 188.625 213.351562 188.242188 C 216.707031 187.824219 220.050781 187.886719 223.386719 188.4375 C 224.671875 188.640625 226.238281 189.183594 227.789062 189.535156 C 231.914062 190.488281 236.804688 192.015625 241.3125 192.546875 C 246.519531 193.160156 252.582031 192.648438 255.105469 187.324219 C 250.136719 191.019531 245.589844 190.589844 241.234375 189.824219 C 234.144531 188.574219 227.21875 183.441406 224.226562 183.695312 C 227 182.855469 229.863281 180.914062 232.5625 179.691406 C 236.707031 177.824219 242.320312 178.210938 249.835938 175.914062 C 258.925781 173.144531 266.898438 178.261719 273.175781 171.207031 C 265.21875 175.105469 259.128906 172.769531 256.65625 172.335938 C 257.648438 172.335938 264.589844 166.988281 262.519531 156.425781 C 262.214844 170.59375 249.199219 174.699219 237.164062 174.621094 C 242.152344 169.082031 242.660156 168.390625 245.160156 159.679688 C 246.285156 155.785156 246.78125 151.96875 248.304688 148.84375 C 250.179688 144.976562 254.328125 141.066406 261.742188 141.359375 C 251.601562 137.617188 244.425781 148.472656 244.132812 151.929688 C 244.09375 149.421875 235.511719 137.578125 244.054688 126.714844 C 232.195312 137.652344 241.238281 151.050781 241.46875 154.015625 Z M 241.46875 154.015625 " fill-opacity="1" fill-rule="nonzero"/><path fill="#40b93c" d="M 121.582031 156.46875 C 120.265625 153.171875 112.988281 149.140625 107.460938 153.019531 C 121.46875 150.042969 120.84375 168.230469 130.589844 174.863281 C 118.441406 175.992188 111.523438 179.632812 105.707031 166.109375 C 106.835938 176.757812 114.160156 178.988281 115.128906 178.824219 C 112.875 179.722656 106.894531 183.382812 98.003906 181.113281 C 102.863281 184.128906 109.199219 183.117188 113.574219 181.800781 C 121.382812 179.441406 123.101562 179.472656 131.242188 179.359375 C 139.074219 179.257812 142.582031 183.554688 149.464844 184.222656 C 144.648438 184.742188 135.25 198.550781 119.6875 191.617188 C 128.363281 200.179688 140.039062 193.054688 148.074219 189.363281 C 150.371094 188.300781 152.78125 187.652344 155.300781 187.417969 C 157.820312 187.1875 160.304688 187.382812 162.757812 188.003906 C 165.175781 188.589844 167.46875 189.5 169.628906 190.738281 C 171.390625 191.824219 174.480469 193.515625 176.035156 195.65625 C 176.683594 196.550781 178.046875 198.550781 178.550781 199.421875 C 180.042969 202.085938 181.089844 204.914062 181.695312 207.90625 C 182.355469 205.859375 181.777344 202.757812 181.460938 200.53125 C 181.007812 197.691406 180.019531 195.054688 178.5 192.613281 C 176.535156 189.472656 174.007812 186.886719 170.910156 184.847656 C 167.261719 182.425781 163.96875 178.273438 163.785156 175.648438 C 163.644531 173.667969 162.410156 169.273438 167.023438 166.203125 C 169.378906 165.828125 175.328125 165.808594 175.949219 161.054688 C 173.589844 164.433594 170.207031 163.796875 168.261719 164.21875 C 168.96875 163.898438 173.136719 158.660156 169.304688 153.339844 C 172.023438 164.140625 161.417969 164.109375 159.164062 173.625 C 156.074219 169.253906 153.628906 162.320312 154.746094 156.675781 C 155.902344 150.839844 159.765625 142.378906 166.578125 139.820312 C 159.332031 140.199219 154.710938 147.101562 151.648438 153.199219 C 146.503906 141.226562 153.941406 136.363281 147.394531 126.8125 C 150.34375 138.746094 144.996094 140.578125 145.601562 144.792969 C 143.347656 141.410156 130.949219 138.542969 131.515625 124.140625 C 127.242188 139.035156 143.015625 146.042969 145.683594 149.496094 C 151.425781 156.96875 149 172.007812 160.472656 182.132812 C 154.757812 181.089844 147.996094 179.984375 144.050781 176.386719 C 141.679688 174.210938 140.105469 170.660156 139.542969 166.101562 C 138.789062 169.589844 139.640625 173.75 141.460938 176.808594 C 115.488281 162.300781 130.527344 144.628906 117.566406 137.75 C 123.765625 143.773438 120.871094 154.027344 121.582031 156.46875 Z M 121.582031 156.46875 " fill-opacity="1" fill-rule="nonzero"/><path fill="#40b93c" d="M 233.472656 194.382812 C 232.652344 201.523438 240.539062 203.050781 244.246094 204.40625 C 243.605469 196.714844 239.394531 190.929688 233.851562 193.285156 C 235.582031 194.34375 237.796875 196.570312 238.359375 198.703125 C 236.804688 196.359375 234.9375 195.640625 233.472656 194.382812 Z M 233.472656 194.382812 " fill-opacity="1" fill-rule="nonzero"/><g clip-path="url(#0c1b11f4f4)"><path fill="#40b93c" d="M 202.332031 217.199219 C 202.332031 210.949219 200.296875 205.421875 202.628906 201.027344 C 204.09375 198.289062 203.136719 197.289062 204.382812 194.496094 C 202.128906 196.027344 201.28125 199.503906 199.410156 201.042969 C 198.285156 201.972656 197.027344 202.097656 195.902344 203.503906 C 192.214844 208.085938 192.847656 210.402344 191.234375 212.914062 C 190.304688 214.347656 189.871094 215.734375 189.054688 217.199219 L 185.675781 217.199219 C 187.574219 214.003906 187.777344 212.265625 187.851562 209.269531 C 187.957031 204.390625 190.152344 200.6875 190.746094 198.308594 C 192.667969 190.585938 188.871094 184.667969 187.71875 177.308594 C 184.339844 155.824219 201.058594 159.761719 200.714844 147.664062 C 198.460938 155.296875 191.601562 154.523438 188.316406 158.488281 C 191.203125 150.894531 187.675781 144.234375 191.425781 136.515625 C 196.035156 127.03125 212.839844 126.050781 210.585938 117.132812 C 208.433594 123.761719 200.960938 124.039062 199.269531 125.273438 C 200.398438 124.023438 203.113281 110.207031 194.15625 101.445312 C 198.453125 109.441406 198.527344 116.15625 196.410156 122.882812 C 195.496094 125.597656 193.980469 127.917969 191.863281 129.84375 C 193.191406 126.105469 188.738281 123.121094 188.964844 118.96875 C 186.859375 123.175781 191.574219 126.8125 188.402344 132.164062 C 187.164062 134.277344 186.777344 135.546875 185.636719 138.304688 C 181.871094 131.820312 175.105469 128.851562 175.359375 126.027344 C 175.796875 121.207031 182.050781 117.011719 180.558594 112.109375 C 180.625 117.515625 172.164062 120.628906 172.753906 125.898438 C 167.914062 119.820312 162.320312 113.714844 163.773438 107.113281 C 159.863281 112.746094 167.3125 123.71875 167.851562 124.382812 C 166.160156 122.984375 155.34375 125.066406 152.074219 118.996094 C 151.757812 123.945312 159.734375 125.476562 165.214844 126.753906 C 168.871094 127.613281 170.894531 129.109375 173.105469 130.796875 C 175.3125 132.480469 177.773438 134.304688 180.148438 137.710938 C 183 142.367188 183.433594 147.964844 183.527344 152.222656 C 179.832031 147.714844 175.359375 150.246094 170.152344 144.441406 C 171.234375 148.34375 173.46875 149.992188 176.347656 151.433594 C 185.140625 155.847656 182.8125 161.539062 180.726562 168.566406 C 178.855469 174.863281 179.234375 177.878906 179.671875 182.949219 C 180.238281 189.148438 182.671875 193.148438 183.617188 199.347656 L 183.652344 199.347656 C 183.871094 203.949219 184.46875 205.292969 183.058594 211.242188 C 182.644531 213 181.820312 214.753906 181.371094 217.199219 L 63.476562 217.199219 L 63.476562 220.171875 L 311.519531 220.171875 L 311.519531 217.199219 Z M 202.332031 217.199219 " fill-opacity="1" fill-rule="nonzero"/></g><g fill="#5ddb59" fill-opacity="1"><g transform="translate(88.682196, 261.136975)"><g><path d="M 1.359375 -13.53125 C 1.359375 -16.1875 1.957031 -18.566406 3.15625 -20.671875 C 4.351562 -22.773438 5.988281 -24.410156 8.0625 -25.578125 C 10.132812 -26.753906 12.460938 -27.34375 15.046875 -27.34375 C 18.054688 -27.34375 20.695312 -26.566406 22.96875 -25.015625 C 25.238281 -23.472656 26.828125 -21.332031 27.734375 -18.59375 L 21.5 -18.59375 C 20.882812 -19.882812 20.015625 -20.851562 18.890625 -21.5 C 17.765625 -22.144531 16.46875 -22.46875 15 -22.46875 C 13.425781 -22.46875 12.023438 -22.097656 10.796875 -21.359375 C 9.578125 -20.628906 8.625 -19.59375 7.9375 -18.25 C 7.257812 -16.914062 6.921875 -15.34375 6.921875 -13.53125 C 6.921875 -11.75 7.257812 -10.179688 7.9375 -8.828125 C 8.625 -7.484375 9.578125 -6.441406 10.796875 -5.703125 C 12.023438 -4.972656 13.425781 -4.609375 15 -4.609375 C 16.46875 -4.609375 17.765625 -4.9375 18.890625 -5.59375 C 20.015625 -6.25 20.882812 -7.222656 21.5 -8.515625 L 27.734375 -8.515625 C 26.828125 -5.753906 25.242188 -3.601562 22.984375 -2.0625 C 20.734375 -0.53125 18.085938 0.234375 15.046875 0.234375 C 12.460938 0.234375 10.132812 -0.347656 8.0625 -1.515625 C 5.988281 -2.691406 4.351562 -4.320312 3.15625 -6.40625 C 1.957031 -8.5 1.359375 -10.875 1.359375 -13.53125 Z M 1.359375 -13.53125 "/></g></g></g><g fill="#5ddb59" fill-opacity="1"><g transform="translate(118.382222, 261.136975)"><g><path d="M 25.0625 -27 L 25.0625 0 L 19.640625 0 L 19.640625 -11.484375 L 8.078125 -11.484375 L 8.078125 0 L 2.671875 0 L 2.671875 -27 L 8.078125 -27 L 8.078125 -15.890625 L 19.640625 -15.890625 L 19.640625 -27 Z M 25.0625 -27 "/></g></g></g><g fill="#5ddb59" fill-opacity="1"><g transform="translate(146.109984, 261.136975)"><g><path d="M 19.21875 -5.140625 L 8.46875 -5.140625 L 6.6875 0 L 1 0 L 10.71875 -27.03125 L 17.015625 -27.03125 L 26.71875 0 L 21 0 Z M 17.75 -9.46875 L 13.84375 -20.765625 L 9.9375 -9.46875 Z M 17.75 -9.46875 "/></g></g></g><g fill="#5ddb59" fill-opacity="1"><g transform="translate(173.799065, 261.136975)"><g><path d="M 8 -27 L 8 -10.28125 C 8 -8.457031 8.472656 -7.0625 9.421875 -6.09375 C 10.378906 -5.125 11.722656 -4.640625 13.453125 -4.640625 C 15.210938 -4.640625 16.566406 -5.125 17.515625 -6.09375 C 18.472656 -7.0625 18.953125 -8.457031 18.953125 -10.28125 L 18.953125 -27 L 24.40625 -27 L 24.40625 -10.328125 C 24.40625 -8.035156 23.90625 -6.09375 22.90625 -4.5 C 21.914062 -2.914062 20.585938 -1.722656 18.921875 -0.921875 C 17.265625 -0.128906 15.414062 0.265625 13.375 0.265625 C 11.363281 0.265625 9.539062 -0.128906 7.90625 -0.921875 C 6.269531 -1.722656 4.972656 -2.914062 4.015625 -4.5 C 3.066406 -6.09375 2.59375 -8.035156 2.59375 -10.328125 L 2.59375 -27 Z M 8 -27 "/></g></g></g><g fill="#5ddb59" fill-opacity="1"><g transform="translate(200.75339, 261.136975)"><g><path d="M 21.03125 -27 L 21.03125 -22.625 L 13.84375 -22.625 L 13.84375 0 L 8.4375 0 L 8.4375 -22.625 L 1.234375 -22.625 L 1.234375 -27 Z M 21.03125 -27 "/></g></g></g><g fill="#5ddb59" fill-opacity="1"><g transform="translate(223.067079, 261.136975)"><g><path d="M 19.21875 -5.140625 L 8.46875 -5.140625 L 6.6875 0 L 1 0 L 10.71875 -27.03125 L 17.015625 -27.03125 L 26.71875 0 L 21 0 Z M 17.75 -9.46875 L 13.84375 -20.765625 L 9.9375 -9.46875 Z M 17.75 -9.46875 "/></g></g></g><g fill="#5ddb59" fill-opacity="1"><g transform="translate(250.75616, 261.136975)"><g><path d="M 16.59375 0 L 10.640625 -10.515625 L 8.078125 -10.515625 L 8.078125 0 L 2.671875 0 L 2.671875 -27 L 12.796875 -27 C 14.890625 -27 16.671875 -26.628906 18.140625 -25.890625 C 19.609375 -25.148438 20.707031 -24.15625 21.4375 -22.90625 C 22.175781 -21.65625 22.546875 -20.257812 22.546875 -18.71875 C 22.546875 -16.9375 22.03125 -15.328125 21 -13.890625 C 19.96875 -12.460938 18.429688 -11.476562 16.390625 -10.9375 L 22.859375 0 Z M 8.078125 -14.578125 L 12.609375 -14.578125 C 14.078125 -14.578125 15.171875 -14.929688 15.890625 -15.640625 C 16.617188 -16.347656 16.984375 -17.332031 16.984375 -18.59375 C 16.984375 -19.832031 16.617188 -20.789062 15.890625 -21.46875 C 15.171875 -22.15625 14.078125 -22.5 12.609375 -22.5 L 8.078125 -22.5 Z M 8.078125 -14.578125 "/></g></g></g><g fill="#5ddb59" fill-opacity="1"><g transform="translate(275.544851, 261.136975)"><g><path d="M 8.078125 -27 L 8.078125 0 L 2.671875 0 L 2.671875 -27 Z M 8.078125 -27 "/></g></g></g></svg>